<svg width="222" height="102" viewBox="0 0 222 102" fill="none" xmlns="http://www.w3.org/2000/svg">
<path d="M220.75 97.1998C208.863 97.1578 169.98 98.3848 170.176 96.4542C170.589 92.3939 175.066 76.2094 175.066 74.2086C175.066 71.7499 174.759 57.0001 173.992 53.3124C173.225 49.6249 171.385 48.3958 168.471 47.7813C165.558 47.1668 165.711 43.9401 166.018 43.1715C166.324 42.4037 172.459 47.7813 175.372 47.1668C178.286 46.5523 173.685 36.8725 173.379 37.3335C173.072 37.7939 195.462 37.0259 197.148 36.5649C198.835 36.1038 199.142 20.125 198.375 16.2832C197.609 12.442 198.222 36.1038 198.222 37.0259C198.222 37.948 207.729 30.2652 208.036 29.8048C208.343 29.3438 209.11 8.90858 208.65 7.833C208.19 6.75746 204.356 8.75507 203.896 9.06204C203.435 9.36962 205.122 32.5704 204.816 33.3382C204.509 34.107 203.129 34.7213 202.516 34.5673C201.903 34.4138 202.362 11.0597 201.903 10.2911C201.442 9.52308 180.126 10.2911 178.439 10.1376C176.753 9.98412 172.459 12.5963 172.919 12.903C173.379 13.2108 180.279 6.91096 180.279 6.91096L208.19 7.06446C208.19 7.06446 198.835 13.7485 198.145 13.7485C197.455 13.7485 172.688 13.3643 171.999 14.1329C171.309 14.9007 171.232 27.1927 171.462 29.4205C171.692 31.6484 171.538 20.3551 171.155 19.5105C170.772 18.6653 169.851 18.6653 168.318 20.2016C166.784 21.7383 168.088 24.1195 167.934 26.1171C167.781 28.1148 167.015 22.8138 166.478 22.0452C165.941 21.2772 165.021 22.7372 163.181 22.8138C161.34 22.8907 162.567 19.3564 161.187 18.3575C159.807 17.3594 165.405 20.3551 166.401 20.5086C167.398 20.6627 167.628 18.5885 167.244 17.5897C166.861 16.5908 163.104 15.2851 161.954 15.8997C160.804 16.5142 165.021 17.282 167.091 16.2832C169.162 15.2852 168.165 10.9829 167.244 8.37095C166.324 5.75879 163.947 5.14429 160.037 6.911C156.127 8.67771 158.887 13.6719 160.343 14.9776C161.801 16.2832 160.804 13.7485 160.574 12.8264C160.343 11.9044 158.58 11.5974 158.58 10.3686C158.58 9.13875 160.343 10.3686 160.804 10.5219C161.264 10.6753 161.417 7.90991 160.804 7.14195C160.19 6.37333 156.127 9.9842 155.283 9.83074C154.439 9.67666 152.983 7.44891 153.673 5.682C154.363 3.91529 156.74 1.07304 160.497 0.765461C164.254 0.457922 165.865 4.83679 165.711 5.14433C165.558 5.45129 164.408 6.21991 165.021 6.98792C165.634 7.75649 170.618 6.14308 170.081 4.99087C169.545 3.83866 164.254 6.37337 161.954 7.29545C159.654 8.21753 155.896 10.8289 155.896 10.8289C155.896 10.8289 155.896 10.8289 156.203 12.8265C156.51 14.8241 160.65 16.1298 160.65 17.5129C160.65 18.8954 156.97 20.2786 156.51 22.4297C156.049 24.5806 158.657 36.258 160.497 37.794C162.337 39.3306 170.618 36.104 172.612 35.1825C174.606 34.2604 173.072 32.2628 173.379 31.6485C173.685 31.0339 174.759 28.2683 175.526 27.9608C176.292 27.6538 175.985 29.6508 175.985 30.2653C175.985 30.8805 180.279 29.1898 180.433 30.5729C180.586 31.956 173.072 34.2604 173.072 34.2604L172.152 31.6485C172.152 31.6485 163.411 34.5674 163.718 33.1851C164.024 31.8017 160.957 19.6641 159.883 18.2809C158.811 16.8984 157.277 19.0496 155.896 21.8152C154.517 24.5806 157.277 42.5571 158.196 47.1669C159.117 51.7759 155.13 62.2245 153.136 65.7579C151.142 69.2922 139.181 70.6744 136.114 70.2143C133.047 69.7532 149.302 68.6777 150.223 68.0632C151.142 67.448 158.35 49.7791 158.35 49.7791C158.35 49.7791 160.19 50.8546 163.104 50.8546C166.018 50.8546 175.526 49.7791 175.372 49.318C175.219 48.857 175.372 49.318 175.066 50.5471C174.759 51.7759 176.445 70.8288 176.445 73.5942C176.445 76.3599 172.306 93.8751 171.385 94.6437C170.465 95.4119 170.772 94.6437 169.085 94.9508C167.398 95.2582 168.012 98.5023 168.165 99.7313C168.318 100.961 174.996 100.961 178.677 100.346C180.298 100.075 179.807 98.8289 178.032 97.9064C175.778 96.7345 171.845 95.8727 171.845 95.8727C171.845 95.8727 166.478 95.8727 167.398 95.4119C168.318 94.9508 169.545 77.1278 170.159 75.7453C170.772 74.3622 166.478 54.6956 167.244 54.2345C168.012 53.7735 156.049 71.4432 153.75 73.1331C151.449 74.8232 138.874 75.1307 135.04 74.8232C131.207 74.5156 128.599 76.3598 128.599 77.5888C128.599 78.8176 132.74 74.5156 132.74 74.5156L133.354 70.0599C133.354 70.0599 131.513 70.0599 129.827 70.5209C128.665 70.8384 127.162 74.3378 126.256 76.735C126.047 77.2901 125.665 79.2447 125.822 80.4211C125.928 81.2156 127.764 79.9508 128.055 79.2358C128.164 78.9659 2.99275 79.2097 0.750031 79.0486" stroke="#03464D" stroke-width="1.5" stroke-miterlimit="10" stroke-linecap="round" stroke-linejoin="round"/>
</svg>
